<?xml version="1.0" encoding="UTF-8"?>
<svg width="200px" height="200px" viewBox="0 0 200 200" version="1.1" xmlns="http://www.w3.org/2000/svg" xmlns:xlink="http://www.w3.org/1999/xlink">
    <title>favicon</title>
    <g id="favicon" stroke="none" stroke-width="1" fill="none" fill-rule="evenodd">
        <rect id="矩形" fill="#394048" x="0" y="0" width="200" height="200" rx="100"></rect>
        <g id="稳" transform="translate(48.2407, 48.963)" fill="#FFFFFF" fill-rule="nonzero">
            <path d="M45.3333333,31.5555556 C44.7407407,32 44.2962963,32.3703704 44,32.6666667 L42.1111111,31 C49.6666667,21.3703704 55.4814815,11.037037 59.5555556,0 C62.5185185,1.11111111 65.037037,2.2037037 67.1111111,3.27777778 C69.1851852,4.35185185 70.4074074,5.05555556 70.7777778,5.38888889 C71.1481481,5.72222222 71.3333333,6.01851852 71.3333333,6.27777778 C71.3333333,6.53703704 70.6851852,6.88888889 69.3888889,7.33333333 C68.0925926,7.77777778 66.7222222,8.90740741 65.2777778,10.7222222 C63.8333333,12.537037 62.7037037,13.8888889 61.8888889,14.7777778 L75.6666667,14.7777778 L78.8888889,11 C79.3333333,10.4814815 79.7777778,10.2222222 80.2222222,10.2222222 C80.962963,10.2222222 83.0185185,11.4814815 86.3888889,14 C89.7592593,16.5185185 91.4444444,17.9814815 91.4444444,18.3888889 C91.4444444,18.7962963 90.7962963,19 89.5,19 C88.2037037,19 87.1481481,19.2037037 86.3333333,19.6111111 C85.5185185,20.0185185 83.5555556,21.5 80.4444444,24.0555556 C77.3333333,26.6111111 74.4074074,29.1851852 71.6666667,31.7777778 L85.2222222,31.7777778 L87.5555556,28.2222222 C87.9259259,27.6296296 88.4259259,27.3333333 89.0555556,27.3333333 C89.6851852,27.3333333 91.6111111,28.2962963 94.8333333,30.2222222 C98.0555556,32.1481481 99.6666667,33.3703704 99.6666667,33.8888889 C99.6666667,34.4814815 98.3333333,35.4814815 95.6666667,36.8888889 L95.6666667,53.4444444 L95.8888889,60.3333333 C95.8888889,61.3703704 95.7037037,62.0740741 95.3333333,62.4444444 C94.962963,62.8148148 93.8333333,63.3703704 91.9444444,64.1111111 C90.0555556,64.8518519 88.4444444,65.2222222 87.1111111,65.2222222 C86.3703704,65.2222222 86,64.6296296 86,63.4444444 L86,61 L50.7777778,61 C48.9259259,61 47.4444444,61.2592593 46.3333333,61.7777778 L44.4444444,57 C45.9259259,57.3703704 47.6666667,57.5555556 49.6666667,57.5555556 L86,57.5555556 L86,47.5555556 L50.3333333,47.5555556 C48.4814815,47.5555556 47,47.8148148 45.8888889,48.3333333 L44,43.5555556 C45.4814815,43.9259259 47.2222222,44.1111111 49.2222222,44.1111111 L86,44.1111111 L86,35.1111111 L51.4444444,35.1111111 C49.5925926,35.1111111 48.1481481,35.3703704 47.1111111,35.8888889 L45.3333333,31.5555556 Z M58.8888889,18.2222222 C55.6296296,21.7777778 51.1481481,26.1481481 45.4444444,31.3333333 C46.4074074,31.6296296 48.0740741,31.7777778 50.4444444,31.7777778 L67.4444444,31.7777778 C70.8518519,26.5185185 73.5185185,22 75.4444444,18.2222222 L58.8888889,18.2222222 Z M20.2222222,16.6666667 L3.11111111,18.6666667 L2.77777778,16.5555556 C18.037037,12.2592593 29.8518519,7.66666667 38.2222222,2.77777778 C43.1111111,8.77777778 45.5555556,12.1481481 45.5555556,12.8888889 C45.5555556,13.1851852 45.3703704,13.3333333 45,13.3333333 C44.6296296,13.3333333 44.1666667,13.2407407 43.6111111,13.0555556 C43.0555556,12.8703704 42.5555556,12.7777778 42.1111111,12.7777778 C41,12.7777778 36.6296296,13.5925926 29,15.2222222 L29,33.7777778 L31.4444444,33.7777778 L34.6666667,29.1111111 C35.2592593,28.2962963 35.8703704,27.8888889 36.5,27.8888889 C37.1296296,27.8888889 38.6666667,29.2037037 41.1111111,31.8333333 C43.5555556,34.462963 44.7777778,36.0185185 44.7777778,36.5 C44.7777778,36.9814815 44.1111111,37.2222222 42.7777778,37.2222222 L29,37.2222222 L29,46.1111111 C33.2222222,47.5185185 36.7407407,48.962963 39.5555556,50.4444444 C42.3703704,51.9259259 43.7777778,53.5740741 43.7777778,55.3888889 C43.7777778,57.2037037 43.2592593,59.1851852 42.2222222,61.3333333 C41.1851852,63.4814815 40.1111111,64.5555556 39,64.5555556 C38.4074074,64.5555556 37.9444444,64.3333333 37.6111111,63.8888889 C37.2777778,63.4444444 36.8888889,62.5185185 36.4444444,61.1111111 C35.037037,56 32.5555556,51.9259259 29,48.8888889 L29,99.1111111 C29,100.074074 28.8148148,100.740741 28.4444444,101.111111 C28.0740741,101.481481 26.9074074,102.055556 24.9444444,102.833333 C22.9814815,103.611111 21.6481481,104 20.9444444,104 C20.2407407,104 19.8888889,103.481481 19.8888889,102.444444 L20,98.1111111 C20.1481481,95.2222222 20.2222222,91.8888889 20.2222222,88.1111111 L20.2222222,56.5555556 C13.9259259,68.2592593 7.77777778,77.5555556 1.77777778,84.4444444 L0,83.2222222 C8.59259259,69 14.8518519,53.6666667 18.7777778,37.2222222 L7.44444444,37.2222222 C5.51851852,37.2222222 3.92592593,37.4074074 2.66666667,37.7777778 L0.777777778,33.2222222 C2.33333333,33.5925926 4.18518519,33.7777778 6.33333333,33.7777778 L20.2222222,33.7777778 L20.2222222,16.6666667 Z M62.3333333,63.3333333 C67.5185185,66.2222222 71,68.4814815 72.7777778,70.1111111 C74.5555556,71.7407407 75.4444444,73.3888889 75.4444444,75.0555556 C75.4444444,76.7222222 74.7777778,78.4814815 73.4444444,80.3333333 C72.1111111,82.1851852 70.7222222,83.1111111 69.2777778,83.1111111 C67.8333333,83.1111111 66.9259259,81.5555556 66.5555556,78.4444444 C65.8888889,73.4074074 64.1111111,68.7777778 61.2222222,64.5555556 L62.3333333,63.3333333 Z M83,76.6666667 C82.9259259,80.4444444 83.2037037,83.5925926 83.8333333,86.1111111 C84.462963,88.6296296 85.8888889,90.5555556 88.1111111,91.8888889 C88.6296296,92.1851852 88.8888889,92.6111111 88.8888889,93.1666667 C88.8888889,93.7222222 88.1666667,95.037037 86.7222222,97.1111111 C85.2777778,99.1851852 83.1481481,100.481481 80.3333333,101 C77.5185185,101.518519 74.3518519,101.777778 70.8333333,101.777778 C67.3148148,101.777778 63.6851852,101.62963 59.9444444,101.333333 C56.2037037,101.037037 53.6851852,100.444444 52.3888889,99.5555556 C51.0925926,98.6666667 50.4444444,96.4444444 50.4444444,92.8888889 L50.4444444,76.6666667 C50.4444444,72.5925926 50.3703704,69.6296296 50.2222222,67.7777778 C57.7037037,70 61.4444444,71.6296296 61.4444444,72.6666667 C61.4444444,73.2592593 60.4074074,74 58.3333333,74.8888889 L58.3333333,91.3333333 C58.3333333,92.0740741 58.537037,92.5740741 58.9444444,92.8333333 C59.3518519,93.0925926 60.3333333,93.2777778 61.8888889,93.3888889 C63.4444444,93.5 65.8518519,93.5555556 69.1111111,93.5555556 C72.3703704,93.5555556 74.6666667,93.2962963 76,92.7777778 C77.3333333,92.2592593 78.3148148,90.9259259 78.9444444,88.7777778 C79.5740741,86.6296296 80.1851852,82.5925926 80.7777778,76.6666667 L83,76.6666667 Z M84.8888889,69.6666667 C90.3703704,73 94.4259259,75.7592593 97.0555556,77.9444444 C99.6851852,80.1296296 101.388889,81.9259259 102.166667,83.3333333 C102.944444,84.7407407 103.333333,86.2222222 103.333333,87.7777778 C103.333333,89.3333333 102.648148,91.0925926 101.277778,93.0555556 C99.9074074,95.0185185 98.7777778,96 97.8888889,96 C97,96 96.3518519,95.7222222 95.9444444,95.1666667 C95.537037,94.6111111 94.9074074,92.7962963 94.0555556,89.7222222 C93.2037037,86.6481481 91.8888889,83.6111111 90.1111111,80.6111111 C88.3333333,77.6111111 86.1111111,74.4814815 83.4444444,71.2222222 L84.8888889,69.6666667 Z M44.2222222,70.4444444 C44.8148148,74.962963 45.1111111,78.9259259 45.1111111,82.3333333 C45.1111111,88.5555556 44.1666667,92.7962963 42.2777778,95.0555556 C40.3888889,97.3148148 38.1851852,98.4444444 35.6666667,98.4444444 C34.2592593,98.4444444 33.1296296,98.0925926 32.2777778,97.3888889 C31.4259259,96.6851852 31,95.7592593 31,94.6111111 C31,93.462963 32.1111111,91.8518519 34.3333333,89.7777778 C38.6296296,85.8518519 41.1111111,79.4074074 41.7777778,70.4444444 L44.2222222,70.4444444 Z" id="形状"></path>
        </g>
    </g>
</svg>