<?xml version="1.0" encoding="UTF-8"?>
<svg width="949px" height="256px" viewBox="0 0 949 256" version="1.1" xmlns="http://www.w3.org/2000/svg" xmlns:xlink="http://www.w3.org/1999/xlink">
    <title>logo备份</title>
    <g id="页面-1" stroke="none" stroke-width="1" fill="none" fill-rule="evenodd">
        <g id="logo备份" fill-rule="nonzero">
            <polygon id="路径" fill="#2366D1" points="110.851252 128 221.702503 192 110.851252 256 0 192"></polygon>
            <polygon id="路径" fill="#609DFF" points="110.851252 64 221.702503 128 110.851252 192 0 128"></polygon>
            <polygon id="路径" fill="#A4C7FF" points="110.851252 0 221.702503 64 110.851252 128 0 64"></polygon>
            <g id="编组" transform="translate(316.512000, 74.168000)" fill="#333333">
                <path d="M8.784,104.832 L8.784,59.184 L42.768,59.184 C49.392,59.184 54.72,60.48 58.464,63.072 C62.496,65.808 64.944,70.416 65.52,76.752 L66.816,90.864 C67.392,96.624 68.688,101.376 70.848,104.832 L80.496,104.832 C77.616,101.088 76.032,96.048 75.456,89.712 L74.016,74.304 C72.864,63.936 67.104,57.6 56.736,55.296 L56.736,55.008 C62.928,53.568 67.824,50.544 71.28,45.936 C74.448,41.472 76.176,36.288 76.176,30.24 C76.176,21.024 73.152,14.112 67.392,9.216 C61.632,4.32 53.568,2.016 43.488,2.016 L-5.68434189e-14,2.016 L-5.68434189e-14,104.832 L8.784,104.832 Z M42.624,51.408 L8.784,51.408 L8.784,9.792 L42.48,9.792 C51.12,9.792 57.456,11.52 61.488,15.12 C65.376,18.576 67.392,23.616 67.392,30.528 C67.392,36.864 65.376,41.76 61.344,45.504 C56.88,49.392 50.688,51.408 42.624,51.408 Z M102.96,18 C104.976,18 106.56,17.28 108,15.984 C109.44,14.544 110.304,12.816 110.304,10.8 C110.304,8.64 109.584,6.912 108.144,5.76 C106.704,4.32 104.976,3.6 102.96,3.6 C100.8,3.6 99.072,4.32 97.776,5.76 C96.336,6.912 95.616,8.64 95.616,10.8 C95.616,12.816 96.336,14.544 97.776,15.984 C99.072,17.28 100.8,18 102.96,18 Z M107.28,104.832 L107.28,30.384 L98.64,30.384 L98.64,104.832 L107.28,104.832 Z M160.992,106.848 C169.92,106.848 177.264,104.4 182.736,99.648 C188.352,94.752 191.952,87.552 193.392,78.192 L184.896,78.192 C182.736,92.304 174.816,99.36 160.992,99.36 C152.784,99.36 146.448,96.48 142.128,90.864 C137.808,85.248 135.648,77.616 135.648,68.112 C135.648,58.464 137.808,50.688 142.416,44.928 C147.024,38.88 153.36,35.856 161.136,35.856 C167.616,35.856 172.944,37.44 176.976,40.608 C181.008,43.776 183.456,48.384 184.464,54.72 L193.104,54.72 C191.952,45.792 188.496,39.168 182.88,34.848 C177.264,30.528 170.064,28.368 161.136,28.368 C150.336,28.368 141.84,32.256 135.648,40.176 C129.744,47.52 126.864,56.88 126.864,68.112 C126.864,79.488 129.6,88.704 135.36,95.616 C141.408,103.104 150.048,106.848 160.992,106.848 Z M216,104.832 L216,61.776 C216,54.432 218.016,48.24 222.336,43.344 C226.656,38.304 231.84,35.856 238.032,35.856 C244.656,35.856 249.696,37.728 253.44,41.616 C257.04,45.648 258.912,51.264 258.912,58.464 L258.912,104.832 L267.552,104.832 L267.552,57.312 C267.552,48.096 265.104,40.896 260.352,35.856 C255.6,30.816 248.976,28.368 240.48,28.368 C235.296,28.368 230.544,29.664 226.368,32.256 C222.048,34.992 218.592,38.88 216,43.92 L216,0 L207.216,0 L207.216,104.832 L216,104.832 Z M294.336,18 C296.352,18 297.936,17.28 299.376,15.984 C300.816,14.544 301.68,12.816 301.68,10.8 C301.68,8.64 300.96,6.912 299.52,5.76 C298.08,4.32 296.352,3.6 294.336,3.6 C292.176,3.6 290.448,4.32 289.152,5.76 C287.712,6.912 286.992,8.64 286.992,10.8 C286.992,12.816 287.712,14.544 289.152,15.984 C290.448,17.28 292.176,18 294.336,18 Z M298.656,104.832 L298.656,30.384 L290.016,30.384 L290.016,104.832 L298.656,104.832 Z M397.008,104.832 L397.008,97.056 L327.024,97.056 L393.552,9.648 L393.552,2.016 L319.968,2.016 L319.968,9.792 L382.32,9.792 L315.648,97.2 L315.648,104.832 L397.008,104.832 Z M418.464,104.832 L418.464,61.776 C418.464,54.432 420.48,48.24 424.8,43.344 C429.12,38.304 434.304,35.856 440.496,35.856 C447.12,35.856 452.16,37.728 455.904,41.616 C459.504,45.648 461.376,51.264 461.376,58.464 L461.376,104.832 L470.016,104.832 L470.016,57.312 C470.016,48.096 467.568,40.896 462.816,35.856 C458.064,30.816 451.44,28.368 442.944,28.368 C437.76,28.368 433.008,29.664 428.832,32.256 C424.512,34.992 421.056,38.88 418.464,43.92 L418.464,0 L409.68,0 L409.68,104.832 L418.464,104.832 Z M520.704,106.848 C531.648,106.848 540.432,102.816 547.056,95.04 C553.104,87.696 556.128,78.624 556.128,67.68 C556.128,56.736 553.104,47.52 547.056,40.176 C540.432,32.256 531.648,28.368 520.704,28.368 C509.76,28.368 500.976,32.256 494.496,40.176 C488.304,47.52 485.28,56.736 485.28,67.68 C485.28,78.624 488.304,87.696 494.352,95.04 C500.976,102.816 509.76,106.848 520.704,106.848 Z M520.704,99.36 C512.208,99.36 505.584,96.048 500.688,89.568 C496.224,83.808 494.064,76.464 494.064,67.68 C494.064,58.752 496.224,51.408 500.688,45.648 C505.584,39.024 512.208,35.856 520.704,35.856 C529.2,35.856 535.968,39.024 540.864,45.648 C545.184,51.408 547.488,58.752 547.488,67.68 C547.488,76.32 545.184,83.664 540.864,89.568 C535.968,96.048 529.2,99.36 520.704,99.36 Z M598.608,106.848 C609.264,106.848 617.616,101.952 623.376,92.304 L623.376,104.832 L632.016,104.832 L632.016,30.384 L623.376,30.384 L623.376,75.6 C622.8,82.656 620.352,88.416 616.032,92.736 C611.712,97.056 606.672,99.36 600.912,99.36 C593.712,99.36 588.384,97.344 584.928,93.312 C581.616,89.424 580.032,83.664 580.032,75.888 L580.032,30.384 L571.392,30.384 L571.392,76.32 C571.392,96.624 580.464,106.848 598.608,106.848 Z" id="RichiZhou"></path>
            </g>
        </g>
    </g>
</svg>