<?xml version="1.0" encoding="UTF-8"?>
<svg width="949px" height="256px" viewBox="0 0 949 256" version="1.1" xmlns="http://www.w3.org/2000/svg" xmlns:xlink="http://www.w3.org/1999/xlink">
    <title>logo-rich</title>
    <g id="logo-rich" stroke="none" stroke-width="1" fill="none" fill-rule="evenodd">
        <g id="编组">
            <rect id="矩形" fill="#394048" x="0" y="0" width="256" height="256" rx="30"></rect>
            <g id="稳" transform="translate(61.7481, 63.2415)" fill="#FFFFFF" fill-rule="nonzero">
                <path d="M58.0266667,40.3911111 C57.2681481,40.96 56.6992593,41.4340741 56.32,41.8133333 L53.9022222,39.68 C63.5733333,27.3540741 71.0162963,14.1274074 76.2311111,0 C80.0237037,1.42222222 83.2474074,2.82074074 85.9022222,4.19555556 C88.557037,5.57037037 90.1214815,6.47111111 90.5955556,6.89777778 C91.0696296,7.32444444 91.3066667,7.7037037 91.3066667,8.03555556 C91.3066667,8.36740741 90.477037,8.81777778 88.8177778,9.38666667 C87.1585185,9.95555556 85.4044444,11.4014815 83.5555556,13.7244444 C81.7066667,16.0474074 80.2607407,17.7777778 79.2177778,18.9155556 L96.8533333,18.9155556 L100.977778,14.08 C101.546667,13.4162963 102.115556,13.0844444 102.684444,13.0844444 C103.632593,13.0844444 106.263704,14.6962963 110.577778,17.92 C114.891852,21.1437037 117.048889,23.0162963 117.048889,23.5377778 C117.048889,24.0592593 116.219259,24.32 114.56,24.32 C112.900741,24.32 111.54963,24.5807407 110.506667,25.1022222 C109.463704,25.6237037 106.951111,27.52 102.968889,30.7911111 C98.9866667,34.0622222 95.2414815,37.357037 91.7333333,40.6755556 L109.084444,40.6755556 L112.071111,36.1244444 C112.545185,35.3659259 113.185185,34.9866667 113.991111,34.9866667 C114.797037,34.9866667 117.262222,36.2192593 121.386667,38.6844444 C125.511111,41.1496296 127.573333,42.7140741 127.573333,43.3777778 C127.573333,44.1362963 125.866667,45.4162963 122.453333,47.2177778 L122.453333,68.4088889 L122.737778,77.2266667 C122.737778,78.5540741 122.500741,79.4548148 122.026667,79.9288889 C121.552593,80.402963 120.106667,81.1140741 117.688889,82.0622222 C115.271111,83.0103704 113.208889,83.4844444 111.502222,83.4844444 C110.554074,83.4844444 110.08,82.7259259 110.08,81.2088889 L110.08,78.08 L64.9955556,78.08 C62.6251852,78.08 60.7288889,78.4118519 59.3066667,79.0755556 L56.8888889,72.96 C58.7851852,73.4340741 61.0133333,73.6711111 63.5733333,73.6711111 L110.08,73.6711111 L110.08,60.8711111 L64.4266667,60.8711111 C62.0562963,60.8711111 60.16,61.202963 58.7377778,61.8666667 L56.32,55.7511111 C58.2162963,56.2251852 60.4444444,56.4622222 63.0044444,56.4622222 L110.08,56.4622222 L110.08,44.9422222 L65.8488889,44.9422222 C63.4785185,44.9422222 61.6296296,45.2740741 60.3022222,45.9377778 L58.0266667,40.3911111 Z M75.3777778,23.3244444 C71.2059259,27.8755556 65.4696296,33.4696296 58.1688889,40.1066667 C59.4014815,40.4859259 61.5348148,40.6755556 64.5688889,40.6755556 L86.3288889,40.6755556 C90.6903704,33.9437037 94.1037037,28.16 96.5688889,23.3244444 L75.3777778,23.3244444 Z M25.8844444,21.3333333 L3.98222222,23.8933333 L3.55555556,21.1911111 C23.0874074,15.6918519 38.2103704,9.81333333 48.9244444,3.55555556 C55.1822222,11.2355556 58.3111111,15.5496296 58.3111111,16.4977778 C58.3111111,16.877037 58.0740741,17.0666667 57.6,17.0666667 C57.1259259,17.0666667 56.5333333,16.9481481 55.8222222,16.7111111 C55.1111111,16.4740741 54.4711111,16.3555556 53.9022222,16.3555556 C52.48,16.3555556 46.8859259,17.3985185 37.12,19.4844444 L37.12,43.2355556 L40.2488889,43.2355556 L44.3733333,37.2622222 C45.1318519,36.2192593 45.9140741,35.6977778 46.72,35.6977778 C47.5259259,35.6977778 49.4933333,37.3807407 52.6222222,40.7466667 C55.7511111,44.1125926 57.3155556,46.1037037 57.3155556,46.72 C57.3155556,47.3362963 56.4622222,47.6444444 54.7555556,47.6444444 L37.12,47.6444444 L37.12,59.0222222 C42.5244444,60.8237037 47.0281481,62.6725926 50.6311111,64.5688889 C54.2340741,66.4651852 56.0355556,68.5748148 56.0355556,70.8977778 C56.0355556,73.2207407 55.3718519,75.757037 54.0444444,78.5066667 C52.717037,81.2562963 51.3422222,82.6311111 49.92,82.6311111 C49.1614815,82.6311111 48.5688889,82.3466667 48.1422222,81.7777778 C47.7155556,81.2088889 47.2177778,80.0237037 46.6488889,78.2222222 C44.8474074,71.68 41.6711111,66.4651852 37.12,62.5777778 L37.12,126.862222 C37.12,128.094815 36.882963,128.948148 36.4088889,129.422222 C35.9348148,129.896296 34.4414815,130.631111 31.9288889,131.626667 C29.4162963,132.622222 27.7096296,133.12 26.8088889,133.12 C25.9081481,133.12 25.4577778,132.456296 25.4577778,131.128889 L25.6,125.582222 C25.7896296,121.884444 25.8844444,117.617778 25.8844444,112.782222 L25.8844444,72.3911111 C17.8251852,87.3718519 9.95555556,99.2711111 2.27555556,108.088889 L0,106.524444 C10.9985185,88.32 19.0103704,68.6933333 24.0355556,47.6444444 L9.52888889,47.6444444 C7.0637037,47.6444444 5.02518519,47.8814815 3.41333333,48.3555556 L0.995555556,42.5244444 C2.98666667,42.9985185 5.35703704,43.2355556 8.10666667,43.2355556 L25.8844444,43.2355556 L25.8844444,21.3333333 Z M79.7866667,81.0666667 C86.4237037,84.7644444 90.88,87.6562963 93.1555556,89.7422222 C95.4311111,91.8281481 96.5688889,93.9377778 96.5688889,96.0711111 C96.5688889,98.2044444 95.7155556,100.456296 94.0088889,102.826667 C92.3022222,105.197037 90.5244444,106.382222 88.6755556,106.382222 C86.8266667,106.382222 85.6651852,104.391111 85.1911111,100.408889 C84.3377778,93.9614815 82.0622222,88.0355556 78.3644444,82.6311111 L79.7866667,81.0666667 Z M106.24,98.1333333 C106.145185,102.968889 106.500741,106.998519 107.306667,110.222222 C108.112593,113.445926 109.937778,115.911111 112.782222,117.617778 C113.445926,117.997037 113.777778,118.542222 113.777778,119.253333 C113.777778,119.964444 112.853333,121.647407 111.004444,124.302222 C109.155556,126.957037 106.42963,128.616296 102.826667,129.28 C99.2237037,129.943704 95.1703704,130.275556 90.6666667,130.275556 C86.162963,130.275556 81.517037,130.085926 76.7288889,129.706667 C71.9407407,129.327407 68.717037,128.568889 67.0577778,127.431111 C65.3985185,126.293333 64.5688889,123.448889 64.5688889,118.897778 L64.5688889,98.1333333 C64.5688889,92.9185185 64.4740741,89.1259259 64.2844444,86.7555556 C73.8607407,89.6 78.6488889,91.6859259 78.6488889,93.0133333 C78.6488889,93.7718519 77.3214815,94.72 74.6666667,95.8577778 L74.6666667,116.906667 C74.6666667,117.854815 74.9274074,118.494815 75.4488889,118.826667 C75.9703704,119.158519 77.2266667,119.395556 79.2177778,119.537778 C81.2088889,119.68 84.2903704,119.751111 88.4622222,119.751111 C92.6340741,119.751111 95.5733333,119.419259 97.28,118.755556 C98.9866667,118.091852 100.242963,116.385185 101.048889,113.635556 C101.854815,110.885926 102.637037,105.718519 103.395556,98.1333333 L106.24,98.1333333 Z M108.657778,89.1733333 C115.674074,93.44 120.865185,96.9718519 124.231111,99.7688889 C127.597037,102.565926 129.777778,104.865185 130.773333,106.666667 C131.768889,108.468148 132.266667,110.364444 132.266667,112.355556 C132.266667,114.346667 131.38963,116.598519 129.635556,119.111111 C127.881481,121.623704 126.435556,122.88 125.297778,122.88 C124.16,122.88 123.33037,122.524444 122.808889,121.813333 C122.287407,121.102222 121.481481,118.779259 120.391111,114.844444 C119.300741,110.90963 117.617778,107.022222 115.342222,103.182222 C113.066667,99.3422222 110.222222,95.3362963 106.808889,91.1644444 L108.657778,89.1733333 Z M56.6044444,90.1688889 C57.362963,95.9525926 57.7422222,101.025185 57.7422222,105.386667 C57.7422222,113.351111 56.5333333,118.779259 54.1155556,121.671111 C51.6977778,124.562963 48.877037,126.008889 45.6533333,126.008889 C43.8518519,126.008889 42.4059259,125.558519 41.3155556,124.657778 C40.2251852,123.757037 39.68,122.571852 39.68,121.102222 C39.68,119.632593 41.1022222,117.57037 43.9466667,114.915556 C49.4459259,109.89037 52.6222222,101.641481 53.4755556,90.1688889 L56.6044444,90.1688889 Z" id="形状"></path>
            </g>
        </g>
        <g id="Rich" transform="translate(378.8, 46.84)" fill-rule="nonzero">
            <path d="M4.54747351e-13,3.08 L4.54747351e-13,160.16 L25.74,160.16 L25.74,96.14 L66.44,96.14 C75.24,96.14 82.06,97.9 86.68,101.86 C91.08,105.6 93.72,111.76 94.6,120.34 L96.58,139.7 C97.46,148.5 99.66,155.32 103.4,160.16 L131.34,160.16 C126.06,154.44 122.76,146.74 121.88,137.06 L119.24,111.76 C117.48,96.36 109.78,87.34 96.14,84.26 L96.14,83.82 C104.5,81.62 111.32,77 116.16,69.96 C120.56,63.58 122.76,56.32 122.76,48.18 C122.76,33.22 117.7,21.78 108.02,13.86 C98.78,6.6 86.02,3.08 69.96,3.08 L4.54747351e-13,3.08 Z M25.74,25.08 L66.44,25.08 C77,25.08 84.7,26.84 89.54,30.8 C94.38,34.54 96.8,40.7 96.8,49.28 C96.8,57.2 94.38,63.36 89.54,67.76 C84.26,71.94 76.56,74.14 66.44,74.14 L25.74,74.14 L25.74,25.08 Z" id="形状" fill="#ED6347"></path>
            <path d="M168.08,0 C163.24,0 159.28,1.54 155.98,4.62 C152.68,7.7 151.14,11.66 151.14,16.5 C151.14,21.34 152.68,25.3 155.98,28.6 C159.28,31.68 163.24,33.22 168.08,33.22 C172.92,33.22 176.88,31.68 180.18,28.6 C183.48,25.52 185.24,21.34 185.24,16.5 C185.24,11.66 183.48,7.7 180.4,4.62 C177.1,1.54 172.92,0 168.08,0 Z M155.54,46.42 L155.54,160.16 L180.62,160.16 L180.62,46.42 L155.54,46.42 Z" id="形状" fill="#394048"></path>
            <path d="M262.68,43.34 C244.86,43.34 231,49.28 221.1,61.16 C211.86,71.94 207.24,86.02 207.24,103.18 C207.24,120.78 211.86,135.08 221.32,146.08 C231,157.52 244.64,163.24 262.24,163.24 C276.98,163.24 288.86,159.5 297.66,152.24 C306.68,144.76 312.62,133.32 315.26,117.92 L290.4,117.92 C288.42,134.42 279.18,142.78 262.46,142.78 C252.78,142.78 245.52,139.26 240.68,132.44 C235.4,125.4 232.98,115.5 232.98,102.96 C232.98,90.64 235.62,80.96 240.9,74.14 C246.18,67.1 253.44,63.8 262.68,63.8 C270.16,63.8 276.32,65.56 280.94,69.08 C285.34,72.6 288.42,77.88 289.96,85.14 L314.82,85.14 C312.62,70.84 306.9,60.28 297.88,53.24 C289.08,46.64 277.42,43.34 262.68,43.34 Z" id="路径" fill="#394048"></path>
            <path d="M335.06,0 L335.06,160.16 L360.14,160.16 L360.14,96.58 C360.14,86.9 362.34,79.2 366.96,73.04 C371.36,66.88 377.52,63.8 385.44,63.8 C394.02,63.8 400.4,66.44 404.8,71.94 C408.54,77 410.52,84.48 410.52,94.16 L410.52,160.16 L435.6,160.16 L435.6,89.76 C435.6,74.58 432.3,63.14 425.92,55.44 C419.1,47.3 408.76,43.34 394.9,43.34 C387.64,43.34 381.26,44.66 375.76,47.52 C369.6,50.6 364.32,55.22 360.14,61.6 L360.14,0 L335.06,0 Z" id="路径" fill="#394048"></path>
        </g>
    </g>
</svg>