<?xml version="1.0" encoding="UTF-8"?>
<svg width="949px" height="256px" viewBox="0 0 949 256" version="1.1" xmlns="http://www.w3.org/2000/svg" xmlns:xlink="http://www.w3.org/1999/xlink">
    <title>logo-rich</title>
    <g id="logo-rich" stroke="none" stroke-width="1" fill="none" fill-rule="evenodd">
        <g id="编组-3" fill-rule="nonzero">
            <g id="编组-2">
                <polygon id="路径" fill="#212B36" points="110.851252 128 221.702503 192 110.851252 256 0 192"></polygon>
                <polygon id="路径" fill="#637381" points="110.851252 64 221.702503 128 110.851252 192 0 128"></polygon>
                <polygon id="路径" fill="#F5F6F6" points="110.851252 0 221.702503 64 110.851252 128 0 64"></polygon>
            </g>
            <g id="RichChou" transform="translate(321.448000, 70.432000)">
                <path d="M18.252,113.568 L18.252,68.172 L47.112,68.172 C53.352,68.172 58.188,69.42 61.464,72.228 C64.584,74.88 66.456,79.248 67.08,85.332 L68.484,99.06 C69.108,105.3 70.668,110.136 73.32,113.568 L93.132,113.568 C89.388,109.512 87.048,104.052 86.424,97.188 L84.552,79.248 C83.304,68.328 77.844,61.932 68.172,59.748 L68.172,59.436 C74.1,57.876 78.936,54.6 82.368,49.608 C85.488,45.084 87.048,39.936 87.048,34.164 C87.048,23.556 83.46,15.444 76.596,9.828 C70.044,4.68 60.996,2.184 49.608,2.184 L0,2.184 L0,113.568 L18.252,113.568 Z M47.112,52.572 L18.252,52.572 L18.252,17.784 L47.112,17.784 C54.6,17.784 60.06,19.032 63.492,21.84 C66.924,24.492 68.64,28.86 68.64,34.944 C68.64,40.56 66.924,44.928 63.492,48.048 C59.748,51.012 54.288,52.572 47.112,52.572 Z" id="R" fill="#ED6347"></path>
                <path d="M109.184,23.556 C112.616,23.556 115.424,22.464 117.764,20.28 C120.104,18.096 121.352,15.132 121.352,11.7 C121.352,8.268 120.104,5.46 117.92,3.276 C115.58,1.092 112.616,0 109.184,0 C105.752,0 102.944,1.092 100.604,3.276 C98.264,5.46 97.172,8.268 97.172,11.7 C97.172,15.132 98.264,17.94 100.604,20.28 C102.944,22.464 105.752,23.556 109.184,23.556 Z M118.076,113.568 L118.076,32.916 L100.292,32.916 L100.292,113.568 L118.076,113.568 Z M165.952,115.752 C176.404,115.752 184.828,113.1 191.068,107.952 C197.464,102.648 201.676,94.536 203.548,83.616 L185.92,83.616 C184.516,95.316 177.964,101.244 166.108,101.244 C159.244,101.244 154.096,98.748 150.664,93.912 C146.92,88.92 145.204,81.9 145.204,73.008 C145.204,64.272 147.076,57.408 150.82,52.572 C154.564,47.58 159.712,45.24 166.264,45.24 C171.568,45.24 175.936,46.488 179.212,48.984 C182.332,51.48 184.516,55.224 185.608,60.372 L203.236,60.372 C201.676,50.232 197.62,42.744 191.224,37.752 C184.984,33.072 176.716,30.732 166.264,30.732 C153.628,30.732 143.8,34.944 136.78,43.368 C130.228,51.012 126.952,60.996 126.952,73.164 C126.952,85.644 130.228,95.784 136.936,103.584 C143.8,111.696 153.472,115.752 165.952,115.752 Z M225.372,113.568 L225.372,68.484 C225.372,61.62 226.932,56.16 230.208,51.792 C233.328,47.424 237.696,45.24 243.312,45.24 C249.396,45.24 253.92,47.112 257.04,51.012 C259.692,54.6 261.096,59.904 261.096,66.768 L261.096,113.568 L278.88,113.568 L278.88,63.648 C278.88,52.884 276.54,44.772 272.016,39.312 C267.18,33.54 259.848,30.732 250.02,30.732 C244.872,30.732 240.348,31.668 236.448,33.696 C232.08,35.88 228.336,39.156 225.372,43.68 L225.372,0 L207.588,0 L207.588,113.568 L225.372,113.568 Z" id="ich" fill="#637381"></path>
                <path d="M337.832,115.752 C349.844,115.752 360.14,112.32 368.72,105.456 C377.924,98.124 383.696,87.984 386.192,74.88 L368.408,74.88 C366.224,83.304 362.48,89.7 357.176,93.912 C352.184,97.656 345.632,99.684 337.676,99.684 C325.508,99.684 316.46,95.784 310.688,88.296 C305.384,81.276 302.732,71.136 302.732,58.032 C302.732,45.24 305.384,35.256 310.844,28.08 C316.772,19.968 325.508,16.068 337.208,16.068 C345.008,16.068 351.404,17.628 356.396,21.06 C361.544,24.492 364.976,29.796 366.848,37.128 L384.632,37.128 C382.916,25.896 378.08,16.848 369.968,10.296 C361.544,3.432 350.624,0 337.52,0 C319.736,0 306.164,5.772 296.804,17.628 C288.536,27.924 284.48,41.496 284.48,58.032 C284.48,74.88 288.38,88.296 296.336,98.28 C305.384,109.824 319.268,115.752 337.832,115.752 Z" id="C" fill="#ED6347"></path>
                <path d="M409.576,113.568 L409.576,68.484 C409.576,61.62 411.136,56.16 414.412,51.792 C417.532,47.424 421.9,45.24 427.516,45.24 C433.6,45.24 438.124,47.112 441.244,51.012 C443.896,54.6 445.3,59.904 445.3,66.768 L445.3,113.568 L463.084,113.568 L463.084,63.648 C463.084,52.884 460.744,44.772 456.22,39.312 C451.384,33.54 444.052,30.732 434.224,30.732 C429.076,30.732 424.552,31.668 420.652,33.696 C416.284,35.88 412.54,39.156 409.576,43.68 L409.576,0 L391.792,0 L391.792,113.568 L409.576,113.568 Z M509.244,115.752 C521.412,115.752 531.396,111.696 538.884,103.584 C546.06,95.784 549.804,85.644 549.804,73.32 C549.804,60.84 546.06,50.7 538.728,42.744 C531.24,34.632 521.412,30.732 509.244,30.732 C496.92,30.732 487.092,34.632 479.76,42.744 C472.272,50.7 468.684,60.84 468.684,73.32 C468.684,85.644 472.272,95.784 479.604,103.584 C487.092,111.696 496.92,115.752 509.244,115.752 Z M509.244,101.244 C501.756,101.244 496.14,98.28 492.084,92.508 C488.652,87.516 486.936,81.12 486.936,73.32 C486.936,65.52 488.652,58.968 492.084,53.976 C496.14,48.048 501.756,45.24 509.244,45.24 C516.576,45.24 522.348,48.048 526.404,53.976 C529.836,58.968 531.708,65.52 531.708,73.32 C531.708,80.964 529.836,87.36 526.404,92.508 C522.348,98.28 516.576,101.244 509.244,101.244 Z M584.42,115.752 C594.404,115.752 602.828,111.54 609.692,103.116 L609.692,113.568 L627.476,113.568 L627.476,32.916 L609.692,32.916 L609.692,82.212 C608.132,87.984 605.48,92.508 601.892,95.94 C598.304,99.216 594.56,100.932 590.66,100.932 C584.42,100.932 580.052,99.372 577.244,96.408 C574.436,93.288 573.188,88.608 573.188,82.056 L573.188,32.916 L555.404,32.916 L555.404,83.148 C555.404,104.832 565.076,115.752 584.42,115.752 Z" id="hou" fill="#637381"></path>
            </g>
        </g>
    </g>
</svg>